PathFileType	4	(X/Y/Z)	71_2_29_p1_0-237.trc
DataRate	CameraRate	NumFrames	NumMarkers	Units	OrigDataRate	OrigDataStartFrame	OrigNumFrames
46.0	46.0	6	27	m	46.0	29	238
Frame#	Time	RHip			RKnee			RAnkle			RBigToe			RSmallToe			RHeel			LHip			LKnee			LAnkle			LBigToe			LSmallToe			LHeel			Neck			Head			Nose			RShoulder			RElbow			RWrist			RThumb			RIndex			RPinky			LShoulder			LElbow			LWrist			LThumb			LIndex			LPinky			
		X1	Y1	Z1	X2	Y2	Z2	X3	Y3	Z3	X4	Y4	Z4	X5	Y5	Z5	X6	Y6	Z6	X7	Y7	Z7	X8	Y8	Z8	X9	Y9	Z9	X10	Y10	Z10	X11	Y11	Z11	X12	Y12	Z12	X13	Y13	Z13	X14	Y14	Z14	X15	Y15	Z15	X16	Y16	Z16	X17	Y17	Z17	X18	Y18	Z18	X19	Y19	Z19	X20	Y20	Z20	X21	Y21	Z21	X22	Y22	Z22	X23	Y23	Z23	X24	Y24	Z24	X25	Y25	Z25	X26	Y26	Z26	X27	Y27	Z27	
29	0.6304347826086957	0.373817943427441	0.3572575124131063	-0.2644573321764208	0.37762037479847715	0.49823309129557564	0.1551770136733243	0.3973632960305397	0.7553523952715129	0.6165367739193398	0.3817429147516561	0.4479834900226017	0.6365935603825416	0.4535285577947348	0.4916150077633696	0.6297488217219855	0.3827671188796246	0.8362317609741379	0.6583310492469115	0.159368546518306	0.37369355387848957	-0.2590328542259242	0.18080539594118775	0.5648749189225578	0.17109362308781045	0.1920508196336448	0.6848606980384855	0.582738835367229	0.2100950213360151	0.45949593394264077	0.6327847819940626	0.14438428636468129	0.5412209986391439	0.6344507451759894	0.20508629021333488	0.7670807865948438	0.6524736252535147	0.2784808215228919	0.19507104097274586	-0.8202961152685484	0.2847857793614477	0.09625267931679322	-1.051164116304049	0.25890448681455897	0.052941125007394486	-0.9064232008104615	0.4312030171781212	0.2200484117158409	-0.7334661403778583	0.5074407790024512	0.26091735959670037	-0.463412806515482	0.4042015120561594	0.23602716214701275	-0.20856557621469973	0.28348030195414703	0.2361396144900643	-0.11436875439661078	0.28561568153956735	0.2719603191685844	-0.08581950363442753	0.30641513081232125	0.2721792564495777	-0.09378784900817162	0.12135499436972218	0.2113491190486819	-0.7339653151056066	0.06982994625751208	0.34286602480813927	-0.46060556166597083	0.16870993822569713	0.22604822513580808	-0.21006468858616026	0.24916774202851644	0.1864104395567013	-0.1463422793136956	0.251134233239289	0.20178882325858358	-0.10333609551036767	0.20046008768852697	0.2501460995223053	-0.0906076892312636
30	0.6521739130434783	0.37781050639131974	0.3435437065882417	-0.26444785528933346	0.38124430350773697	0.5007784243589871	0.15976971633690884	0.39732861588406715	0.7553349829555672	0.6166075723136943	0.38184944429328876	0.4479093072161431	0.6366041572010037	0.45355780161992176	0.49161692834922543	0.6298024581681394	0.38279196637068424	0.8364045216969898	0.6584581787005168	0.16288300469300596	0.3871907330453085	-0.2585329603465143	0.1811885376837677	0.5650585208842903	0.17452051336621363	0.19202445122220524	0.6850372737751695	0.582987995227518	0.2100323330049426	0.45954348463294464	0.6328772936857286	0.14437886660575625	0.5413030910490421	0.6347036251816114	0.20506104978154105	0.7676540193314073	0.6526629566692714	0.2784649977263026	0.1948044609738381	-0.8203145773752281	0.28476657354224205	0.09625077539100335	-1.0511674939078717	0.258831171150184	0.05283996552111332	-0.9064789947457154	0.43504653559760403	0.22076826819456208	-0.7338320115477366	0.5083353333364187	0.28732485648126727	-0.4652976706899406	0.4132093391504413	0.24813353040689737	-0.2125474077010428	0.2873909394314238	0.24836475967639826	-0.11482435154315042	0.29476933207174977	0.26058707694860755	-0.0863357101115625	0.33448237595749564	0.27497963437593137	-0.08813755032957146	0.12111022087362525	0.20896633504683848	-0.7406958845949598	0.06999461138460032	0.34226914199071656	-0.4643029698988329	0.15955139436191632	0.23679723136663278	-0.2141325423064739	0.24101787465923377	0.1852146280008177	-0.14634137809518863	0.23387210552911383	0.18098322281479948	-0.11088137363082874	0.1939347791651847	0.25821890800433783	-0.10077178066660696
31	0.6739130434782609	0.3834995930780621	0.3742967815726779	-0.2607184602614413	0.38316418222259596	0.5016324615425105	0.16354566993576702	0.3974038501422249	0.7551774022798838	0.6166116734728551	0.37832137726859566	0.4324781589553807	0.6323996734252707	0.4534308867917912	0.4899656588637388	0.6296663399523797	0.382719594185272	0.8361877918215571	0.6583603592768664	0.16290678049012028	0.387881787219286	-0.2587870311678436	0.18114912685400733	0.5649571982279031	0.1743968710543251	0.18687643191429484	0.7016591758534643	0.5873566833839973	0.21000716190421687	0.45968771728664515	0.6329330536767823	0.1442911906567917	0.54139858031197	0.6347471852019936	0.20996520952956682	0.7723107770821281	0.6536527561419048	0.2712253709621273	0.1815968274648799	-0.8175428464725131	0.28485808614573344	0.0962412558045493	-1.051199439123149	0.2588410762075466	0.05262733958683044	-0.9064858512954848	0.4310690388187633	0.21981246040064373	-0.7337196155270074	0.5123675627538958	0.3008778778967099	-0.4668691331421001	0.42282330951200375	0.2612923165872446	-0.21271153882942082	0.32877952261985066	0.24518350266597727	-0.0975028420538382	0.34498201292445657	0.2353128520030541	-0.09095814115353436	0.3876915687705532	0.27669712755462456	-0.08567668962878898	0.12077433753938685	0.20802604564517024	-0.744109335171339	0.0673588840941921	0.327769014201446	-0.46717416698286685	0.15555731968940592	0.2356555250307621	-0.2174906749082195	0.215904703348766	0.1845170708512955	-0.149145838512355	0.21276509315447262	0.17649866744099116	-0.11145320817456164	0.18531147715347276	0.23998235805824122	-0.10874300176685327
32	0.6956521739130435	0.37871454232028356	0.37443019050889054	-0.25659179377954133	0.38269203061334817	0.50279027340466	0.1680486453704332	0.39744588052431257	0.7551634768600524	0.6166875883628721	0.3827585883484329	0.44893222820250084	0.6407379555632212	0.4534665810924605	0.4899301485595552	0.6298525346871068	0.3828291543037582	0.8361974719375913	0.658377942562701	0.16279739587179765	0.38734347769614247	-0.25849525147860336	0.18118448976126728	0.5649974327051371	0.17459172468014084	0.19096719153921538	0.6817644135864516	0.5778070572826474	0.2100256585689753	0.4595822860809832	0.6329405846596047	0.14434475382229772	0.5412571963480532	0.6346961517197515	0.20809298048519667	0.7809662782321951	0.6564081221361626	0.2712270217968704	0.18174242070242433	-0.817583437607315	0.28486662241991073	0.09624309941605946	-1.0512183680742206	0.25887069935729035	0.05262249130819112	-0.9065368684192058	0.4310912484208239	0.21998266861291843	-0.7336193133937047	0.5140219072251353	0.3171157755103138	-0.46848706675752083	0.42665578783119423	0.27488117891530844	-0.21264248365212668	0.3533255125296101	0.20812486955212825	-0.09769881175142571	0.368124427984926	0.22309498622861992	-0.09343803056792323	0.39655081669895137	0.28979501404647023	-0.08496997086776606	0.12073571852811325	0.20799146677177402	-0.7442663025836217	0.06878373595483225	0.3371108000734038	-0.47537322543907196	0.1394631917606665	0.23306939502060806	-0.2205469008348467	0.20206712364347776	0.21881552012913064	-0.1537359332297748	0.1989734405964925	0.20008253170704343	-0.11361273695343599	0.17383099546170427	0.23833441180242815	-0.1087126671086054
33	0.717391304347826	0.379942292301243	0.361001422132307	-0.25256372712144304	0.3792490431195251	0.500412478518801	0.1639830129244169	0.39332440415247105	0.7381942841982353	0.6123785638807765	0.378851489665316	0.46469450131173035	0.6456613642658784	0.45331120465540736	0.4895922129610724	0.6298035378073107	0.3828676101520249	0.8359376908929635	0.658173544484189	0.16569884162656615	0.40173373884033203	-0.25406307079859136	0.18120532288560967	0.5647889656296717	0.17410377014968975	0.1871761285843547	0.7010156196424542	0.591325489240839	0.21005002124286754	0.45962620387531405	0.6328950432387795	0.14469573646560183	0.5409417229034389	0.6384167338717576	0.20588154278584145	0.7668218111942955	0.6564097208205556	0.2711791820180071	0.18172309050264798	-0.8176404945317568	0.28196928891746326	0.08571890657163167	-1.0482286483483783	0.26656009391054364	0.04198740316614497	-0.9074027825633869	0.4349981462521786	0.22088426034309258	-0.7339588596986604	0.5182746746098084	0.33068715737285725	-0.4652366909142253	0.4386171070885626	0.27450314903630263	-0.21688949708424432	0.36960767640080966	0.2192914219488641	-0.10931359073492186	0.38294675442845105	0.24742155287146747	-0.0965436610843158	0.4132186828717781	0.290349944289482	-0.0907066024256699	0.11698497348357687	0.20713395728778258	-0.7439862172874796	0.06395858342231053	0.3526330480303632	-0.47237954410349364	0.13507458746970905	0.23228524659818314	-0.2243918602551047	0.19483738480919702	0.2176568830702501	-0.15344393067945833	0.18712915159893295	0.2101271087095347	-0.11609602816954413	0.16242226009484298	0.20871680824156383	-0.11453448257030299
34	0.7391304347826086	0.37951844538444923	0.36026419024714756	-0.25646472279995	0.37552446726141975	0.48698683881304383	0.1621744451201676	0.39750229087019284	0.7548194544517796	0.6164339531981958	0.3754382259583713	0.45030036473893564	0.6417200765257477	0.45325334651714466	0.4895972881104241	0.6297923904313923	0.3828036301885616	0.8357318770034132	0.6580873689059501	0.16401108350563737	0.38880174129267153	-0.25424943518361204	0.18123829243329187	0.5649496763309055	0.17413499095243037	0.18623743519099092	0.6982281367244166	0.585981449111351	0.21017090982155565	0.45949917542035296	0.6328043782845669	0.14440653696945135	0.5411760077525185	0.6344919738298903	0.2144693033241826	0.7881869528697294	0.66157882431232	0.2706305759295726	0.17909377109456187	-0.8241257401430722	0.28197593287448736	0.0854778056760853	-1.048127232551396	0.2666196145134437	0.04194516841440682	-0.9074887472860836	0.4349952047866638	0.2208120300002357	-0.7340576487265578	0.5144085811281424	0.3427636195864186	-0.4741643529272446	0.45004075923061565	0.3127701008279558	-0.2167314341449358	0.3895846122267691	0.24342826583330096	-0.11546959971542299	0.39271403189978066	0.26229283740205045	-0.09847696318220357	0.4322522147676204	0.3061166421834592	-0.09275599240492033	0.1169177371215234	0.20705971927498426	-0.7439796958718419	0.05945590397062941	0.3488789146439762	-0.4758020305179635	0.1347828662224194	0.23226360721881653	-0.22461847416832617	0.19455188599373016	0.21688719685283517	-0.15998429659237254	0.18450656351822653	0.19678021022761769	-0.11728529450045967	0.15003196848843375	0.16733602431997777	-0.11701885445050034
